{"accessors" : [{"bufferView" : 0, "byteOffset" : 0, "componentType" : 5123, "count" : 1332, "type" : "SCALAR", "max" : [1331], "min" : [0]}, {"bufferView" : 1, "byteOffset" : 0, "componentType" : 5126, "count" : 1332, "type" : "VEC3", "max" : [3.085188627243042, 1.2179532051086426, 5.0059003829956055], "min" : [-2.073627233505249, -1.9970262050628662, -3.552713678800501E-15], "name" : "POSITION"}, {"bufferView" : 1, "byteOffset" : 12, "componentType" : 5126, "count" : 1332, "type" : "VEC3", "max" : [0.9986314177513123, 0.9992800354957581, 0.9803661108016968], "min" : [-0.996205747127533, -0.9995120763778687, -0.9969369173049927], "name" : "NORMAL"}, {"bufferView" : 1, "byteOffset" : 24, "componentType" : 5126, "count" : 1332, "type" : "VEC2", "max" : [1, -0], "min" : [0, -1], "name" : "TEXCOORD_0"}, {"bufferView" : 0, "byteOffset" : 2664, "componentType" : 5123, "count" : 12960, "type" : "SCALAR", "max" : [12959], "min" : [0]}, {"bufferView" : 2, "byteOffset" : 0, "componentType" : 5126, "count" : 12960, "type" : "VEC3", "max" : [4.437498092651367, 3.2508792877197266, 7.616217136383057], "min" : [-3.7433598041534424, -3.1269562244415283, 2.9736413955688477], "name" : "POSITION"}, {"bufferView" : 2, "byteOffset" : 12, "componentType" : 5126, "count" : 12960, "type" : "VEC3", "max" : [0.9997806549072266, 0.9985891580581665, 0.9969310164451599], "min" : [-0.9990250468254089, -0.9999822378158569, -0.9993618726730347], "name" : "NORMAL"}, {"bufferView" : 2, "byteOffset" : 24, "componentType" : 5126, "count" : 12960, "type" : "VEC2", "max" : [1, -0], "min" : [0, -1], "name" : "TEXCOORD_0"}], "asset" : {"generator" : "Aspose.3D 23.9.0", "version" : "2.0"}, "buffers" : [{"uri" : "data:application/octet-stream;base64,", "byteLength" : 485940}], "bufferViews" : [{"buffer" : 0, "byteOffset" : 0, "byteLength" : 28584, "target" : 34963}, {"buffer" : 0, "byteOffset" : 28588, "byteLength" : 42624, "byteStride" : 32, "target" : 34962}, {"buffer" : 0, "byteOffset" : 71216, "byteLength" : 414720, "byteStride" : 32, "target" : 34962}], "materials" : [{"name" : "Tree_wood", "pbrMetallicRoughness" : {"baseColorFactor" : [0.21403329074382782, 0.04623707756400108, 0.013290640898048878, 1], "metallicFactor" : 0, "roughnessFactor" : 0}, "emissiveFactor" : [0, 0, 0], "alphaMode" : "OPAQUE", "doubleSided" : false}, {"name" : "Tree_leaves", "pbrMetallicRoughness" : {"baseColorFactor" : [0.1503378301858902, 0.46980583667755127, 0, 1], "metallicFactor" : 0, "roughnessFactor" : 0}, "emissiveFactor" : [0, 0, 0], "alphaMode" : "OPAQUE", "doubleSided" : false}], "meshes" : [{"primitives" : [{"attributes" : {"POSITION" : 1, "NORMAL" : 2, "TEXCOORD_0" : 3}, "indices" : 0, "material" : 0, "mode" : 4}, {"attributes" : {"POSITION" : 5, "NORMAL" : 6, "TEXCOORD_0" : 7}, "indices" : 4, "material" : 1, "mode" : 4}], "name" : "Tree.3"}], "nodes" : [{"matrix" : [100, 0, 0, 0, 0, -1.6292067955264296E-05, -99.99999999999866, 0, 0, 99.99999999999866, -1.6292067955264296E-05, 0, 0, 0, 0, 1], "mesh" : 0, "name" : "Tree.3"}], "scene" : 0, "scenes" : [{"nodes" : [0]}]}