{"accessors" : [{"bufferView" : 0, "byteOffset" : 0, "componentType" : 5123, "count" : 366, "type" : "SCALAR", "max" : [365], "min" : [0]}, {"bufferView" : 1, "byteOffset" : 0, "componentType" : 5126, "count" : 366, "type" : "VEC3", "max" : [0.4486503601074219, 0.8114738464355469, 0.17430157959461212], "min" : [-0.08474349975585938, -1.0922703742980957, -0.0004912587464787066], "name" : "POSITION"}, {"bufferView" : 1, "byteOffset" : 12, "componentType" : 5126, "count" : 366, "type" : "VEC3", "max" : [0.9990147352218628, 1.0000044107437134, 0.9077277779579163], "min" : [-0.9996451139450073, -0.9969381093978882, -0.8848484754562378], "name" : "NORMAL"}, {"bufferView" : 1, "byteOffset" : 24, "componentType" : 5126, "count" : 366, "type" : "VEC2", "max" : [1, -0], "min" : [0, -1], "name" : "TEXCOORD_0"}, {"bufferView" : 0, "byteOffset" : 732, "componentType" : 5123, "count" : 18, "type" : "SCALAR", "max" : [17], "min" : [0]}, {"bufferView" : 2, "byteOffset" : 0, "componentType" : 5126, "count" : 18, "type" : "VEC3", "max" : [0.045162200927734375, 0.8114738464355469, 0.11534580588340759], "min" : [-0.04311180114746094, 0.8114738464355469, 0.013416345231235027], "name" : "POSITION"}, {"bufferView" : 2, "byteOffset" : 12, "componentType" : 5126, "count" : 18, "type" : "VEC3", "max" : [0, 1.0000044107437134, 0], "min" : [0, 1.0000042915344238, 0], "name" : "NORMAL"}, {"bufferView" : 2, "byteOffset" : 24, "componentType" : 5126, "count" : 18, "type" : "VEC2", "max" : [1, -0], "min" : [0, -1], "name" : "TEXCOORD_0"}], "asset" : {"generator" : "Aspose.3D 23.9.0", "version" : "2.0"}, "buffers" : [{"uri" : "data:application/octet-stream;base64,", "byteLength" : 13068}], "bufferViews" : [{"buffer" : 0, "byteOffset" : 0, "byteLength" : 768, "target" : 34963}, {"buffer" : 0, "byteOffset" : 772, "byteLength" : 11712, "byteStride" : 32, "target" : 34962}, {"buffer" : 0, "byteOffset" : 12488, "byteLength" : 576, "byteStride" : 32, "target" : 34962}], "materials" : [{"name" : "Tree_wood", "pbrMetallicRoughness" : {"baseColorFactor" : [0.21403329074382782, 0.04623707756400108, 0.013290640898048878, 1], "metallicFactor" : 0, "roughnessFactor" : 0}, "emissiveFactor" : [0, 0, 0], "alphaMode" : "OPAQUE", "doubleSided" : false}, {"name" : "Tree_wood_inner.1", "pbrMetallicRoughness" : {"baseColorFactor" : [0.40456071496009827, 0.18069316446781158, 0.058546509593725204, 1], "metallicFactor" : 0, "roughnessFactor" : 0}, "emissiveFactor" : [0, 0, 0], "alphaMode" : "OPAQUE", "doubleSided" : false}], "meshes" : [{"primitives" : [{"attributes" : {"POSITION" : 1, "NORMAL" : 2, "TEXCOORD_0" : 3}, "indices" : 0, "material" : 0, "mode" : 4}, {"attributes" : {"POSITION" : 5, "NORMAL" : 6, "TEXCOORD_0" : 7}, "indices" : 4, "material" : 1, "mode" : 4}], "name" : "Log.001"}], "nodes" : [{"matrix" : [100, 0, 0, 0, 0, -1.6292067955264296E-05, -99.99999999999866, 0, 0, 99.99999999999866, -1.6292067955264296E-05, 0, 0, 0, 0, 1], "mesh" : 0, "name" : "Log.2"}], "scene" : 0, "scenes" : [{"nodes" : [0]}]}