{"accessors" : [{"bufferView" : 0, "byteOffset" : 0, "componentType" : 5123, "count" : 384, "type" : "SCALAR", "max" : [383], "min" : [0]}, {"bufferView" : 1, "byteOffset" : 0, "componentType" : 5126, "count" : 384, "type" : "VEC3", "max" : [0.9105913639068604, 0.46027129888534546, 3.809068441390991], "min" : [-0.9468755125999451, -0.4454902410507202, 1.7763568394002505E-15], "name" : "POSITION"}, {"bufferView" : 1, "byteOffset" : 12, "componentType" : 5126, "count" : 384, "type" : "VEC3", "max" : [0.9784840941429138, 0.9978811740875244, 0.7534655928611755], "min" : [-0.9995782375335693, -0.9719071388244629, -0.7481088042259216], "name" : "NORMAL"}, {"bufferView" : 1, "byteOffset" : 24, "componentType" : 5126, "count" : 384, "type" : "VEC2", "max" : [1, -0], "min" : [0, -1], "name" : "TEXCOORD_0"}, {"bufferView" : 0, "byteOffset" : 768, "componentType" : 5123, "count" : 4320, "type" : "SCALAR", "max" : [4319], "min" : [0]}, {"bufferView" : 2, "byteOffset" : 0, "componentType" : 5126, "count" : 4320, "type" : "VEC3", "max" : [2.9034810066223145, 1.8530367612838745, 6.509289264678955], "min" : [-3.1083967685699463, -2.0690886974334717, 1.9938932657241821], "name" : "POSITION"}, {"bufferView" : 2, "byteOffset" : 12, "componentType" : 5126, "count" : 4320, "type" : "VEC3", "max" : [0.9991750717163086, 0.9969024062156677, 0.9967551827430725], "min" : [-0.9968898296356201, -0.9999289512634277, -0.9982776045799255], "name" : "NORMAL"}, {"bufferView" : 2, "byteOffset" : 24, "componentType" : 5126, "count" : 4320, "type" : "VEC2", "max" : [1, -0], "min" : [0, -1], "name" : "TEXCOORD_0"}], "asset" : {"generator" : "Aspose.3D 23.9.0", "version" : "2.0"}, "buffers" : [{"uri" : "data:application/octet-stream;base64,", "byteLength" : 159948}], "bufferViews" : [{"buffer" : 0, "byteOffset" : 0, "byteLength" : 9408, "target" : 34963}, {"buffer" : 0, "byteOffset" : 9412, "byteLength" : 12288, "byteStride" : 32, "target" : 34962}, {"buffer" : 0, "byteOffset" : 21704, "byteLength" : 138240, "byteStride" : 32, "target" : 34962}], "materials" : [{"name" : "Tree_wood", "pbrMetallicRoughness" : {"baseColorFactor" : [0.21403329074382782, 0.04623707756400108, 0.013290640898048878, 1], "metallicFactor" : 0, "roughnessFactor" : 0}, "emissiveFactor" : [0, 0, 0], "alphaMode" : "OPAQUE", "doubleSided" : false}, {"name" : "Tree_leaves", "pbrMetallicRoughness" : {"baseColorFactor" : [0.1503378301858902, 0.46980583667755127, 0, 1], "metallicFactor" : 0, "roughnessFactor" : 0}, "emissiveFactor" : [0, 0, 0], "alphaMode" : "OPAQUE", "doubleSided" : false}], "meshes" : [{"primitives" : [{"attributes" : {"POSITION" : 1, "NORMAL" : 2, "TEXCOORD_0" : 3}, "indices" : 0, "material" : 0, "mode" : 4}, {"attributes" : {"POSITION" : 5, "NORMAL" : 6, "TEXCOORD_0" : 7}, "indices" : 4, "material" : 1, "mode" : 4}], "name" : "Tree.2"}], "nodes" : [{"matrix" : [100, 0, 0, 0, 0, -1.6292067955264296E-05, -99.99999999999866, 0, 0, 99.99999999999866, -1.6292067955264296E-05, 0, 0, 0, 0, 1], "mesh" : 0, "name" : "Tree.2"}], "scene" : 0, "scenes" : [{"nodes" : [0]}]}