{
  "accessors": [
    {
      "bufferView": 0,
      "byteOffset": 0,
      "componentType": 5123,
      "count": 240,
      "type": "SCALAR",
      "max": [239],
      "min": [0]
    },
    {
      "bufferView": 1,
      "byteOffset": 0,
      "componentType": 5126,
      "count": 240,
      "type": "VEC3",
      "max": [0.1855107694864273, 0.18551011383533478, 2.626216173171997],
      "min": [
        -0.18550947308540344, -0.18551009893417358, -8.881784197001252e-16
      ],
      "name": "POSITION"
    },
    {
      "bufferView": 1,
      "byteOffset": 12,
      "componentType": 5126,
      "count": 240,
      "type": "VEC3",
      "max": [0.9951818585395813, 0.9923568964004517, 0.49125850200653076],
      "min": [-0.9997490048408508, -0.9808633923530579, -0.17311611771583557],
      "name": "NORMAL"
    },
    {
      "bufferView": 1,
      "byteOffset": 24,
      "componentType": 5126,
      "count": 240,
      "type": "VEC2",
      "max": [1, -0],
      "min": [0, -1],
      "name": "TEXCOORD_0"
    },
    {
      "bufferView": 0,
      "byteOffset": 480,
      "componentType": 5123,
      "count": 1440,
      "type": "SCALAR",
      "max": [1439],
      "min": [0]
    },
    {
      "bufferView": 2,
      "byteOffset": 0,
      "componentType": 5126,
      "count": 1440,
      "type": "VEC3",
      "max": [1.4902358055114746, 1.37623929977417, 4.769046783447266],
      "min": [-1.5513629913330078, -1.5923504829406738, 1.9138426780700684],
      "name": "POSITION"
    },
    {
      "bufferView": 2,
      "byteOffset": 12,
      "componentType": 5126,
      "count": 1440,
      "type": "VEC3",
      "max": [0.999309241771698, 0.9985892176628113, 0.9988082647323608],
      "min": [-0.9863040447235107, -0.9985573291778564, -0.9998763203620911],
      "name": "NORMAL"
    },
    {
      "bufferView": 2,
      "byteOffset": 24,
      "componentType": 5126,
      "count": 1440,
      "type": "VEC2",
      "max": [1, -0],
      "min": [0, -1],
      "name": "TEXCOORD_0"
    }
  ],
  "asset": { "generator": "Aspose.3D 23.9.0", "version": "2.0" },
  "buffers": [
    {
      "uri": "data:application/octet-stream;base64,",
      "byteLength": 57132
    }
  ],
  "bufferViews": [
    { "buffer": 0, "byteOffset": 0, "byteLength": 3360, "target": 34963 },
    {
      "buffer": 0,
      "byteOffset": 3364,
      "byteLength": 7680,
      "byteStride": 32,
      "target": 34962
    },
    {
      "buffer": 0,
      "byteOffset": 11048,
      "byteLength": 46080,
      "byteStride": 32,
      "target": 34962
    }
  ],
  "materials": [
    {
      "name": "Tree_wood",
      "pbrMetallicRoughness": {
        "baseColorFactor": [
          0.21403329074382782, 0.04623707756400108, 0.013290640898048878, 1
        ],
        "metallicFactor": 0,
        "roughnessFactor": 0
      },
      "emissiveFactor": [0, 0, 0],
      "alphaMode": "OPAQUE",
      "doubleSided": false
    },
    {
      "name": "Tree_leaves",
      "pbrMetallicRoughness": {
        "baseColorFactor": [0.1503378301858902, 0.46980583667755127, 0, 1],
        "metallicFactor": 0,
        "roughnessFactor": 0
      },
      "emissiveFactor": [0, 0, 0],
      "alphaMode": "OPAQUE",
      "doubleSided": false
    }
  ],
  "meshes": [
    {
      "primitives": [
        {
          "attributes": { "POSITION": 1, "NORMAL": 2, "TEXCOORD_0": 3 },
          "indices": 0,
          "material": 0,
          "mode": 4
        },
        {
          "attributes": { "POSITION": 5, "NORMAL": 6, "TEXCOORD_0": 7 },
          "indices": 4,
          "material": 1,
          "mode": 4
        }
      ],
      "name": "Tree.1"
    }
  ],
  "nodes": [
    {
      "matrix": [
        100, 0, 0, 0, 0, -1.6292067955264296e-5, -99.99999999999866, 0, 0,
        99.99999999999866, -1.6292067955264296e-5, 0, 0, 0, 0, 1
      ],
      "mesh": 0,
      "name": "Tree.1"
    }
  ],
  "scene": 0,
  "scenes": [{ "nodes": [0] }]
}
