<?xml version="1.0" standalone="no"?>
<!DOCTYPE svg PUBLIC "-//W3C//DTD SVG 20010904//EN"
 "http://www.w3.org/TR/2001/REC-SVG-20010904/DTD/svg10.dtd">
<svg version="1.0" xmlns="http://www.w3.org/2000/svg"
 width="512.000000pt" height="512.000000pt" viewBox="0 0 512.000000 512.000000"
 preserveAspectRatio="xMidYMid meet">

<g transform="translate(0.000000,512.000000) scale(0.100000,-0.100000)"
fill="#000000" stroke="none">
<path d="M2046 4261 c-67 -68 -69 -50 19 -165 28 -36 54 -65 58 -66 12 0 168
143 165 151 -4 10 -167 139 -176 139 -4 0 -34 -27 -66 -59z"/>
<path d="M2777 4138 c-19 -35 -42 -77 -50 -94 l-16 -31 72 -28 c40 -15 96 -39
125 -52 29 -14 55 -23 56 -22 6 8 66 172 64 174 -2 2 -39 22 -83 45 -44 23
-89 49 -100 56 -11 8 -23 14 -26 14 -4 0 -23 -28 -42 -62z"/>
<path d="M1460 3774 c-6 -16 -24 -64 -41 -108 -17 -43 -29 -79 -27 -81 7 -6
182 -35 186 -31 10 11 42 200 35 206 -4 5 -28 13 -53 18 -25 6 -55 14 -67 17
-19 6 -25 2 -33 -21z"/>
<path d="M3067 3469 l-117 -59 31 -58 c17 -31 45 -80 61 -109 l29 -52 112 81
c62 44 116 84 121 88 8 8 -102 171 -114 169 -3 0 -58 -27 -123 -60z"/>
<path d="M1834 3132 l-81 -35 48 -79 c26 -44 50 -85 52 -91 2 -8 18 -2 43 16
21 16 60 43 86 60 26 18 48 34 47 37 0 3 -25 32 -57 66 l-57 61 -81 -35z"/>
<path d="M2430 2626 l-85 -11 -3 -106 -3 -106 76 5 c41 2 75 1 75 -4 0 -5 -20
-142 -45 -304 -25 -162 -45 -301 -45 -307 0 -9 20 -13 65 -13 l65 0 0 319 0
320 25 3 c14 2 26 6 27 11 1 4 -5 52 -12 107 -14 114 2 104 -140 86z"/>
<path d="M1257 1763 c-4 -3 -7 -38 -7 -77 0 -143 -42 -405 -105 -662 -19 -78
-35 -151 -35 -162 0 -26 43 -77 58 -68 34 21 140 458 167 695 22 185 21 204
-16 246 -30 34 -48 42 -62 28z"/>
<path d="M705 1684 c-65 -17 -115 -37 -130 -54 -16 -18 -16 -22 -2 -52 24 -53
6 -152 -90 -494 -58 -210 -60 -228 -23 -274 19 -24 21 -24 34 -7 8 11 31 71
51 135 56 179 50 169 105 181 186 40 339 129 393 230 52 94 46 187 -16 257
-51 59 -99 77 -207 80 -52 2 -104 0 -115 -2z m191 -100 c86 -41 102 -136 37
-223 -44 -57 -174 -131 -279 -157 -24 -6 -26 -5 -21 17 42 185 56 269 51 300
-6 41 -1 47 56 65 52 17 117 16 156 -2z"/>
<path d="M2889 1584 c-5 -14 -9 -46 -9 -72 0 -47 -14 -119 -24 -129 -3 -3 -27
-9 -53 -14 -100 -19 -126 -45 -83 -84 15 -14 29 -16 65 -12 30 5 45 3 45 -5 0
-6 -22 -86 -50 -178 -27 -92 -50 -179 -50 -194 0 -39 56 -92 105 -102 72 -13
180 33 229 99 33 44 11 51 -74 22 -83 -28 -145 -33 -153 -10 -5 12 93 370 108
395 3 5 31 14 63 20 31 6 73 16 92 22 92 28 65 58 -52 58 l-79 0 8 53 c10 75
8 96 -17 122 -33 35 -59 38 -71 9z"/>
<path d="M1709 1406 c-136 -49 -319 -311 -319 -458 0 -62 57 -127 130 -149 60
-18 108 0 183 71 l63 59 12 -59 c12 -58 35 -91 52 -74 9 9 56 303 58 359 0 17
4 53 7 81 5 37 3 59 -8 81 -19 35 -81 93 -102 93 -7 0 -19 2 -27 5 -7 2 -29
-2 -49 -9z m77 -94 c7 -4 17 -27 24 -51 10 -40 9 -50 -10 -95 -12 -28 -29 -67
-37 -86 -55 -130 -197 -226 -255 -173 -29 26 -22 74 26 170 75 150 202 268
252 235z"/>
<path d="M2116 1411 c-3 -5 -11 -64 -16 -132 -12 -133 -14 -146 -62 -312 -27
-96 -29 -111 -17 -133 7 -14 22 -30 33 -36 28 -15 56 19 186 228 101 162 189
274 214 274 7 0 21 -9 31 -20 27 -30 15 -118 -39 -290 -50 -156 -54 -187 -31
-197 34 -13 81 60 128 197 29 84 57 213 57 260 0 74 -72 160 -133 160 -45 0
-131 -94 -232 -254 -44 -70 -81 -123 -83 -117 -2 5 9 63 23 128 37 160 37 185
0 223 -29 30 -49 38 -59 21z"/>
<path d="M3283 1408 c-6 -7 -13 -78 -16 -158 -5 -123 -11 -164 -40 -271 -31
-113 -33 -129 -21 -157 15 -37 47 -43 64 -11 6 11 34 86 61 167 75 219 119
289 214 343 62 35 79 53 71 74 -4 10 -19 15 -49 15 -52 0 -104 -33 -162 -105
l-39 -47 -11 57 c-13 64 -53 116 -72 93z"/>
<path d="M4465 1410 c-109 -25 -216 -143 -265 -290 -32 -96 -26 -195 16 -246
46 -57 96 -79 179 -79 59 0 81 5 138 33 67 33 98 65 79 84 -6 6 -39 2 -90 -11
-141 -36 -229 -23 -250 37 -10 30 -1 117 14 132 5 5 28 5 54 0 122 -24 241 -3
308 55 34 30 37 37 37 86 0 65 -37 128 -100 170 -46 32 -78 39 -120 29z m95
-119 c30 -30 46 -71 37 -95 -9 -24 -56 -49 -105 -57 -66 -11 -172 0 -172 17 0
23 71 114 109 140 49 33 95 32 131 -5z"/>
<path d="M3840 1393 c-55 -27 -145 -123 -180 -194 -80 -156 -77 -272 6 -351
34 -31 102 -58 149 -58 92 0 249 83 226 119 -8 12 -21 11 -89 -7 -131 -36
-224 -25 -253 30 -12 23 -4 114 12 134 6 8 24 9 62 2 85 -16 187 -5 252 26 30
15 63 39 72 52 18 28 19 103 3 135 -19 34 -82 99 -111 115 -37 19 -106 17
-149 -3z m142 -100 c41 -44 50 -68 37 -97 -20 -43 -72 -61 -173 -59 -48 1 -90
4 -93 7 -11 11 8 54 44 95 72 85 138 104 185 54z"/>
</g>
</svg>
